<svg width="0" height="0" style="position:absolute"><symbol viewBox="0 0 110 35" id="icon--drink-wisely" xmlns="http://www.w3.org/2000/svg"><g fill="#502c1e"><path d="M103.024 11.838V14h2.14v1.647h-2.14v2.141h-1.648v-2.162h-2.14V14h2.14v-2.162zM91.638 24.5c-.597-.124-1.112-.35-1.523-.7s-.741-.803-.947-1.38c-.227-.576-.33-1.317-.33-2.202 0-.865.206-1.606.597-2.203s.989-.968 1.77-1.07v-.021c-.41-.103-.76-.227-1.029-.433a2.3 2.3 0 01-.658-.68 2.49 2.49 0 01-.33-.843 4.495 4.495 0 01-.082-.906c0-.556.082-1.07.247-1.544.165-.474.432-.865.803-1.215.37-.33.844-.597 1.42-.782.577-.186 1.277-.289 2.1-.289s1.524.103 2.121.289c.577.185 1.05.453 1.42.782.371.33.639.741.804 1.215.164.473.247.988.247 1.544 0 .309-.02.617-.083.906a2.49 2.49 0 01-.33.844c-.164.267-.37.494-.637.68-.268.205-.618.329-1.05.432v.04c.432.083.803.227 1.09.433.31.206.557.453.742.741s.33.618.412.968.123.741.123 1.153c0 .885-.103 1.606-.33 2.203-.226.576-.534 1.03-.946 1.38s-.906.576-1.524.7c-.597.123-1.276.184-2.059.184-.761-.04-1.44-.102-2.038-.226m1.153-9.368c.062.227.124.412.206.536a.77.77 0 00.309.267c.123.041.247.062.37.062.268 0 .495-.123.68-.35.185-.226.288-.7.288-1.38 0-.35-.02-.638-.082-.864s-.124-.391-.206-.515a.77.77 0 00-.309-.267 1.166 1.166 0 00-.741 0 .72.72 0 00-.309.267 1.491 1.491 0 00-.206.515c-.062.226-.082.515-.082.865s.02.638.082.864m.062 6.856c.206.288.473.412.823.412s.618-.144.824-.412c.185-.288.288-.844.288-1.688 0-.824-.103-1.38-.288-1.668s-.474-.411-.824-.411-.617.144-.823.411c-.185.289-.288.844-.288 1.668 0 .844.103 1.42.288 1.688m-9.574-7.206h-2.697v-2.326c.577 0 1.07-.041 1.483-.103.411-.082.761-.185 1.07-.35.289-.165.536-.391.72-.68.186-.288.35-.638.474-1.05h2.697V24.5H83.3v-9.718zM28.391 16.265c0-1.153-.782-2.12-1.853-2.41L24.541 9.1c-.391-.947-1.091-1.585-2.43-1.585h-9.84c-.392 0-.7.061-.989.164l1.194 1.524h9.574c.556 0 .844.226 1.091.823.247.639 1.544 3.706 1.544 3.706h-8.73l6.507 8.42h.762v.99l1.997 2.573c.72-.165 1.255-.783 1.255-1.544 0-.495-.02-2.018-.02-2.018h1.935zm-3.541 2.47c-.906 0-1.626-.72-1.626-1.626 0-.906.72-1.627 1.626-1.627s1.626.742 1.626 1.627-.72 1.606-1.626 1.626M9.532 25.776c.906 0 1.627-.72 1.627-1.626v-2.018h5.147l-6.506-8.4h-.103l.041-.082-1.173-1.524c-.391.948-.72 1.73-.72 1.73a2.496 2.496 0 00-1.874 2.409v5.867h1.935s-.02 1.524-.02 2.018c.02.906.74 1.626 1.646 1.626M7.906 17.11c0-.906.72-1.627 1.626-1.627.906 0 1.627.72 1.627 1.627 0 .906-.72 1.626-1.627 1.626a1.63 1.63 0 01-1.626-1.626M59.665 29.956l-.02-.474-7.371-9.511c-.062.308-.103.555-.103.555l-.042.165s-.988-1.05-1.564-1.256c-.577-.206-1.318-.535-1.318-.535s-.165-.062.412-.535c.226-.186.515-.474.782-.762l-1.791-2.306c-.206.247-.453.535-.741.906-1.133 1.318-1.853 2.985-1.853 2.985s.226.391 2.141 1.483c1.915 1.09 3.974 1.873 3.974 1.873s.185 1.462-.206 2.12-.803 1.174-.906 2.657c-.124 1.482.947 2.655 1.297 2.964a.471.471 0 01.144.33c.782.144 1.565.226 2.388.226 1.647 0 3.253-.309 4.777-.885M63.865 22.585c-.762-1.256-2.677-2.594-3.253-2.985.309.041.823.082.823.082s.206-.37 1.03-3.458c.35-1.339.411-2.615.37-3.645l.556-.555c.062-.062.041-.165-.02-.227l-.68-.638a17.314 17.314 0 00-.144-.803l-.844-.165h-.02l-.66-.638c-.308-.288-.74-.37-1.05-.185l-1.05-1.01-.452.454 1.05 1.009c-.165.308-.083.72.226 1.008l.7.66.082.35.639.432.35.494s-.165 1.4-.35 2.347c-.165.967-1.194 1.853-1.194 1.853s-1.112-1.05-2.039-1.894c-.926-.824-1.4-1.421-2.738-2.203-1.359-.762-.268-1.853.206-2.183.473-.33.947-.164 1.276-.226.33-.062.227-.165.227-.165V9.45l-.041-.453.247-.206.412-.206s0-.226-.145-.453c-.144-.226-.555-.74-.555-.74s.123-.598-.227-1.771c-.35-1.153-2.08-1.545-3.273-1.668C52.129 3.85 51.12 5.29 51.12 5.29s-.33.618-.68.597c-.33 0-.617 0-1.4.556-.226.165-.391.453-.515.782l2.76 3.562c-.021-.04-.021-.062-.021-.103-.103-.411-.33-1.009-.37-1.359-.042-.37.164-.102.452-.04.268.061.885.596.885.596s.144.556.062.927c-.062.37-.432.576-.432.576l-.062.02 11.55 14.927c.494-.7 1.42-2.244.515-3.747"/><path d="M17.232 0C7.742 0 0 7.72 0 17.232s7.72 17.233 17.232 17.233c9.492 0 17.233-7.72 17.233-17.233C34.465 7.721 26.745 0 17.232 0M2.78 17.232c0-3.603 1.318-6.876 3.5-9.408l17.315 22.358a14.317 14.317 0 01-6.362 1.483C9.265 31.685 2.78 25.2 2.78 17.232m23.512 11.242L8.626 5.64a14.355 14.355 0 018.606-2.862c7.968 0 14.453 6.486 14.453 14.453 0 4.53-2.1 8.586-5.394 11.242M54.888 0c-9.512 0-17.232 7.72-17.232 17.232s7.72 17.233 17.232 17.233c9.491 0 17.233-7.72 17.233-17.233C72.12 7.721 64.379 0 54.888 0M40.435 17.232c0-3.603 1.318-6.876 3.5-9.408L61.25 30.182a14.317 14.317 0 01-6.362 1.483c-7.967.02-14.453-6.465-14.453-14.433m23.512 11.242L46.282 5.64A14.338 14.338 0 0154.888 2.8c7.968 0 14.453 6.485 14.453 14.453-.02 4.509-2.12 8.565-5.394 11.22M109.756 17.232c0 9.512-7.72 17.233-17.232 17.233S75.29 26.745 75.29 17.232C75.291 7.721 83.011 0 92.524 0c9.532 0 17.232 7.72 17.232 17.232m-2.8 0c0-7.947-6.485-14.432-14.432-14.432-7.948 0-14.433 6.485-14.433 14.432s6.485 14.433 14.433 14.433c7.967 0 14.432-6.465 14.432-14.433"/></g></symbol><symbol viewBox="0 0 78.062 36.44" id="icon--title:left" xmlns="http://www.w3.org/2000/svg"><defs><style>.bcls-1{fill:#4a3024;fill-rule:evenodd}</style></defs><path id="btitle-left.svg" class="bcls-1" d="M702.437 1224.23a72.872 72.872 0 0017.957 1.5c3.728-.1 8.118-.1 10.32 3.12a8.226 8.226 0 011.257 3.56c.429 3.13-.449 6.59-2.756 8.58s-6.1 1.98-8.006-.44a6.331 6.331 0 01-1.081-5.5c1-.75 1.557 1.3 1.93 2.53.833 2.76 5.22 2.35 6.267-.33s-.646-5.85-3.02-7.26-5.212-1.49-7.926-1.54c-18.5-.36-22.98-.73-39.034-1.1l-9.75 8.05-14.609-11.24 14.607-10.8 9.825 7.79c16-.39 20.494-.77 38.966-1.15 2.715-.06 5.553-.15 7.929-1.56s4.074-4.58 3.031-7.26-5.431-3.08-6.267-.32c-.375 1.23-.939 3.28-1.933 2.54a6.348 6.348 0 011.088-5.51c1.908-2.42 5.7-2.43 8.007-.45s3.177 5.44 2.744 8.57a8.335 8.335 0 01-1.263 3.57c-2.206 3.22-6.6 3.23-10.324 3.13a73.721 73.721 0 00-17.959 1.52zm-30.857.03l-3.129-2.48-3.357 2.49 3.355 2.58z" transform="translate(-654 -1206)"/></symbol><symbol viewBox="0 0 78.06 36.44" id="icon--title:right" xmlns="http://www.w3.org/2000/svg"><defs><style>.ccls-1{fill:#4a3024;fill-rule:evenodd}</style></defs><path id="ctitle-right.svg" class="ccls-1" d="M1218.56 1224.23a72.819 72.819 0 01-17.95 1.5c-3.73-.1-8.12-.1-10.32 3.12a8.179 8.179 0 00-1.26 3.56c-.43 3.13.45 6.59 2.75 8.58s6.11 1.98 8.01-.44a6.34 6.34 0 001.08-5.5c-.99-.75-1.55 1.3-1.93 2.53-.83 2.76-5.22 2.35-6.27-.33s.65-5.85 3.03-7.26 5.21-1.49 7.92-1.54c18.5-.36 22.98-.73 39.03-1.1l9.76 8.05 14.6-11.24-14.6-10.8-9.83 7.79c-16-.39-20.49-.77-38.96-1.15-2.72-.06-5.56-.15-7.93-1.56s-4.08-4.58-3.03-7.26 5.43-3.08 6.26-.32c.38 1.23.94 3.28 1.94 2.54a6.359 6.359 0 00-1.09-5.51c-1.91-2.42-5.7-2.43-8.01-.45s-3.18 5.44-2.74 8.57a8.265 8.265 0 001.26 3.57c2.21 3.22 6.6 3.23 10.32 3.13a73.684 73.684 0 0117.96 1.52zm30.86.03l3.13-2.48 3.36 2.49-3.36 2.58z" transform="translate(-1188.94 -1206)"/></symbol></svg>