<svg height="35" width="110" xmlns="http://www.w3.org/2000/svg"><g fill="#502c1e"><path d="M103.024 11.838V14h2.14v1.647h-2.14v2.141h-1.648v-2.162h-2.14V14h2.14v-2.162zM91.638 24.5c-.597-.124-1.112-.35-1.523-.7s-.741-.803-.947-1.38c-.227-.576-.33-1.317-.33-2.202 0-.865.206-1.606.597-2.203s.989-.968 1.77-1.07v-.021c-.41-.103-.76-.227-1.029-.433a2.3 2.3 0 01-.658-.68 2.49 2.49 0 01-.33-.843 4.495 4.495 0 01-.082-.906c0-.556.082-1.07.247-1.544.165-.474.432-.865.803-1.215.37-.33.844-.597 1.42-.782.577-.186 1.277-.289 2.1-.289s1.524.103 2.121.289c.577.185 1.05.453 1.42.782.371.33.639.741.804 1.215.164.473.247.988.247 1.544 0 .309-.02.617-.083.906a2.49 2.49 0 01-.33.844c-.164.267-.37.494-.637.68-.268.205-.618.329-1.05.432v.04c.432.083.803.227 1.09.433.31.206.557.453.742.741s.33.618.412.968.123.741.123 1.153c0 .885-.103 1.606-.33 2.203-.226.576-.534 1.03-.946 1.38s-.906.576-1.524.7c-.597.123-1.276.184-2.059.184-.761-.04-1.44-.102-2.038-.226m1.153-9.368c.062.227.124.412.206.536a.77.77 0 00.309.267c.123.041.247.062.37.062.268 0 .495-.123.68-.35.185-.226.288-.7.288-1.38 0-.35-.02-.638-.082-.864s-.124-.391-.206-.515a.77.77 0 00-.309-.267 1.166 1.166 0 00-.741 0 .72.72 0 00-.309.267 1.491 1.491 0 00-.206.515c-.062.226-.082.515-.082.865s.02.638.082.864m.062 6.856c.206.288.473.412.823.412s.618-.144.824-.412c.185-.288.288-.844.288-1.688 0-.824-.103-1.38-.288-1.668s-.474-.411-.824-.411-.617.144-.823.411c-.185.289-.288.844-.288 1.668 0 .844.103 1.42.288 1.688m-9.574-7.206h-2.697v-2.326c.577 0 1.07-.041 1.483-.103.411-.082.761-.185 1.07-.35.289-.165.536-.391.72-.68.186-.288.35-.638.474-1.05h2.697V24.5H83.3v-9.718zm-54.888 1.483c0-1.153-.782-2.12-1.853-2.41L24.541 9.1c-.391-.947-1.091-1.585-2.43-1.585h-9.84c-.392 0-.7.061-.989.164l1.194 1.524h9.574c.556 0 .844.226 1.091.823.247.639 1.544 3.706 1.544 3.706h-8.73l6.507 8.42h.762v.99l1.997 2.573c.72-.165 1.255-.783 1.255-1.544 0-.495-.02-2.018-.02-2.018h1.935zm-3.541 2.47c-.906 0-1.626-.72-1.626-1.626 0-.906.72-1.627 1.626-1.627s1.626.742 1.626 1.627-.72 1.606-1.626 1.626M9.532 25.776c.906 0 1.627-.72 1.627-1.626v-2.018h5.147l-6.506-8.4h-.103l.041-.082-1.173-1.524c-.391.948-.72 1.73-.72 1.73a2.496 2.496 0 00-1.874 2.409v5.867h1.935s-.02 1.524-.02 2.018c.02.906.74 1.626 1.646 1.626M7.906 17.11c0-.906.72-1.627 1.626-1.627.906 0 1.627.72 1.627 1.627 0 .906-.72 1.626-1.627 1.626a1.63 1.63 0 01-1.626-1.626m51.759 12.846l-.02-.474-7.371-9.511c-.062.308-.103.555-.103.555l-.042.165s-.988-1.05-1.564-1.256c-.577-.206-1.318-.535-1.318-.535s-.165-.062.412-.535c.226-.186.515-.474.782-.762l-1.791-2.306c-.206.247-.453.535-.741.906-1.133 1.318-1.853 2.985-1.853 2.985s.226.391 2.141 1.483c1.915 1.09 3.974 1.873 3.974 1.873s.185 1.462-.206 2.12-.803 1.174-.906 2.657c-.124 1.482.947 2.655 1.297 2.964a.471.471 0 01.144.33c.782.144 1.565.226 2.388.226 1.647 0 3.253-.309 4.777-.885m4.2-7.371c-.762-1.256-2.677-2.594-3.253-2.985.309.041.823.082.823.082s.206-.37 1.03-3.458c.35-1.339.411-2.615.37-3.645l.556-.555c.062-.062.041-.165-.02-.227l-.68-.638a17.314 17.314 0 00-.144-.803l-.844-.165h-.02l-.66-.638c-.308-.288-.74-.37-1.05-.185l-1.05-1.01-.452.454 1.05 1.009c-.165.308-.083.72.226 1.008l.7.66.082.35.639.432.35.494s-.165 1.4-.35 2.347c-.165.967-1.194 1.853-1.194 1.853s-1.112-1.05-2.039-1.894c-.926-.824-1.4-1.421-2.738-2.203-1.359-.762-.268-1.853.206-2.183.473-.33.947-.164 1.276-.226.33-.062.227-.165.227-.165V9.45l-.041-.453.247-.206.412-.206s0-.226-.145-.453c-.144-.226-.555-.74-.555-.74s.123-.598-.227-1.771c-.35-1.153-2.08-1.545-3.273-1.668C52.129 3.85 51.12 5.29 51.12 5.29s-.33.618-.68.597c-.33 0-.617 0-1.4.556-.226.165-.391.453-.515.782l2.76 3.562c-.021-.04-.021-.062-.021-.103-.103-.411-.33-1.009-.37-1.359-.042-.37.164-.102.452-.04.268.061.885.596.885.596s.144.556.062.927c-.062.37-.432.576-.432.576l-.062.02 11.55 14.927c.494-.7 1.42-2.244.515-3.747"/><path d="M17.232 0C7.742 0 0 7.72 0 17.232s7.72 17.233 17.232 17.233c9.492 0 17.233-7.72 17.233-17.233C34.465 7.721 26.745 0 17.232 0M2.78 17.232c0-3.603 1.318-6.876 3.5-9.408l17.315 22.358a14.317 14.317 0 01-6.362 1.483C9.265 31.685 2.78 25.2 2.78 17.232m23.512 11.242L8.626 5.64a14.355 14.355 0 018.606-2.862c7.968 0 14.453 6.486 14.453 14.453 0 4.53-2.1 8.586-5.394 11.242M54.888 0c-9.512 0-17.232 7.72-17.232 17.232s7.72 17.233 17.232 17.233c9.491 0 17.233-7.72 17.233-17.233C72.12 7.721 64.379 0 54.888 0M40.435 17.232c0-3.603 1.318-6.876 3.5-9.408L61.25 30.182a14.317 14.317 0 01-6.362 1.483c-7.967.02-14.453-6.465-14.453-14.433m23.512 11.242L46.282 5.64a14.338 14.338 0 018.606-2.84c7.968 0 14.453 6.485 14.453 14.453-.02 4.509-2.12 8.565-5.394 11.22m45.809-11.241c0 9.512-7.72 17.233-17.232 17.233S75.29 26.745 75.29 17.232C75.291 7.721 83.011 0 92.524 0c9.532 0 17.232 7.72 17.232 17.232m-2.8 0c0-7.947-6.485-14.432-14.432-14.432-7.948 0-14.433 6.485-14.433 14.432s6.485 14.433 14.433 14.433c7.967 0 14.432-6.465 14.432-14.433"/></g></svg>